solid 
 facet normal  6.332352e-02  9.979931e-01  0.000000e+00
   outer loop
     vertex  2.755316e+02  4.838000e+01  0.000000e+00
     vertex  2.500000e+02  5.000000e+01  0.000000e+00
     vertex  2.500000e+02  5.000000e+01  1.000000e+01
   endloop
 endfacet
 facet normal  6.332352e-02  9.979931e-01 -0.000000e+00
   outer loop
     vertex  2.755316e+02  4.838000e+01  0.000000e+00
     vertex  2.500000e+02  5.000000e+01  1.000000e+01
     vertex  2.755316e+02  4.838000e+01  1.000000e+01
   endloop
 endfacet
 facet normal  2.173214e-01  9.761001e-01 -0.000000e+00
   outer loop
     vertex  2.973603e+02  4.352000e+01  0.000000e+00
     vertex  2.755316e+02  4.838000e+01  1.000000e+01
     vertex  2.973603e+02  4.352000e+01  1.000000e+01
   endloop
 endfacet
 facet normal  2.173214e-01  9.761001e-01  0.000000e+00
   outer loop
     vertex  2.973603e+02  4.352000e+01  0.000000e+00
     vertex  2.755316e+02  4.838000e+01  0.000000e+00
     vertex  2.755316e+02  4.838000e+01  1.000000e+01
   endloop
 endfacet
 facet normal  3.952695e-01  9.185652e-01 -0.000000e+00
   outer loop
     vertex  3.134358e+02  3.660253e+01  0.000000e+00
     vertex  2.973603e+02  4.352000e+01  1.000000e+01
     vertex  3.134358e+02  3.660253e+01  1.000000e+01
   endloop
 endfacet
 facet normal  3.952695e-01  9.185652e-01  0.000000e+00
   outer loop
     vertex  3.134358e+02  3.660253e+01  0.000000e+00
     vertex  2.973603e+02  4.352000e+01  0.000000e+00
     vertex  2.973603e+02  4.352000e+01  1.000000e+01
   endloop
 endfacet
 facet normal  5.749857e-01  8.181635e-01 -0.000000e+00
   outer loop
     vertex  3.261365e+02  2.767678e+01  0.000000e+00
     vertex  3.134358e+02  3.660253e+01  1.000000e+01
     vertex  3.261365e+02  2.767678e+01  1.000000e+01
   endloop
 endfacet
 facet normal  5.749857e-01  8.181635e-01  0.000000e+00
   outer loop
     vertex  3.261365e+02  2.767678e+01  0.000000e+00
     vertex  3.134358e+02  3.660253e+01  0.000000e+00
     vertex  3.134358e+02  3.660253e+01  1.000000e+01
   endloop
 endfacet
 facet normal  7.343516e-01  6.787693e-01 -0.000000e+00
   outer loop
     vertex  3.353526e+02  1.770595e+01  0.000000e+00
     vertex  3.261365e+02  2.767678e+01  1.000000e+01
     vertex  3.353526e+02  1.770595e+01  1.000000e+01
   endloop
 endfacet
 facet normal  7.343516e-01  6.787693e-01  0.000000e+00
   outer loop
     vertex  3.353526e+02  1.770595e+01  0.000000e+00
     vertex  3.261365e+02  2.767678e+01  0.000000e+00
     vertex  3.261365e+02  2.767678e+01  1.000000e+01
   endloop
 endfacet
 facet normal  8.563927e-01  5.163250e-01 -0.000000e+00
   outer loop
     vertex  3.424708e+02  5.899438e+00  0.000000e+00
     vertex  3.353526e+02  1.770595e+01  1.000000e+01
     vertex  3.424708e+02  5.899438e+00  1.000000e+01
   endloop
 endfacet
 facet normal  8.563927e-01  5.163250e-01  0.000000e+00
   outer loop
     vertex  3.424708e+02  5.899438e+00  0.000000e+00
     vertex  3.353526e+02  1.770595e+01  0.000000e+00
     vertex  3.353526e+02  1.770595e+01  1.000000e+01
   endloop
 endfacet
 facet normal  9.353532e-01  3.537151e-01 -0.000000e+00
   outer loop
     vertex  3.470864e+02 -6.305706e+00  0.000000e+00
     vertex  3.424708e+02  5.899438e+00  1.000000e+01
     vertex  3.470864e+02 -6.305706e+00  1.000000e+01
   endloop
 endfacet
 facet normal  9.353532e-01  3.537151e-01  0.000000e+00
   outer loop
     vertex  3.470864e+02 -6.305706e+00  0.000000e+00
     vertex  3.424708e+02  5.899438e+00  0.000000e+00
     vertex  3.424708e+02  5.899438e+00  1.000000e+01
   endloop
 endfacet
 facet normal  9.781065e-01  2.081048e-01 -0.000000e+00
   outer loop
     vertex  3.500000e+02 -2.000000e+01  0.000000e+00
     vertex  3.470864e+02 -6.305706e+00  1.000000e+01
     vertex  3.500000e+02 -2.000000e+01  1.000000e+01
   endloop
 endfacet
 facet normal  9.781065e-01  2.081048e-01  0.000000e+00
   outer loop
     vertex  3.500000e+02 -2.000000e+01  0.000000e+00
     vertex  3.470864e+02 -6.305706e+00  0.000000e+00
     vertex  3.470864e+02 -6.305706e+00  1.000000e+01
   endloop
 endfacet
endsolid
